<?xml version="1.0" encoding="utf-8"?>
<!-- Generator: Adobe Illustrator 19.0.0, SVG Export Plug-In . SVG Version: 6.00 Build 0)  -->
<svg version="1.1" id="Layer_1" xmlns="http://www.w3.org/2000/svg" xmlns:xlink="http://www.w3.org/1999/xlink" x="0px" y="0px"
	 viewBox="0 0 130.6 31.3" style="enable-background:new 0 0 130.6 31.3;" xml:space="preserve">
<style type="text/css">
	.st0{fill:url(#XMLID_282_);}
	.st1{opacity:0.15;fill:none;}
	.st2{fill:#EFEFF0;}
	.st3{fill:url(#XMLID_283_);}
	.st4{fill:url(#XMLID_284_);}
	.st5{fill:url(#XMLID_285_);}
	.st6{fill:url(#XMLID_286_);}
	.st7{fill:url(#XMLID_287_);}
	.st8{fill:url(#XMLID_288_);}
	.st9{fill:none;}
	.st10{fill:url(#XMLID_289_);}
	.st11{fill:url(#XMLID_290_);}
	.st12{fill:url(#XMLID_291_);}
	.st13{fill:url(#XMLID_292_);}
	.st14{clip-path:url(#XMLID_293_);fill:#988D8A;}
	.st15{clip-path:url(#XMLID_293_);fill:#9C928F;}
	.st16{clip-path:url(#XMLID_293_);fill:#A19794;}
	.st17{clip-path:url(#XMLID_293_);fill:#A59C99;}
	.st18{clip-path:url(#XMLID_293_);fill:#AAA19E;}
	.st19{clip-path:url(#XMLID_293_);fill:#AEA5A3;}
	.st20{clip-path:url(#XMLID_293_);fill:#B2AAA7;}
	.st21{clip-path:url(#XMLID_293_);fill:#B6AEAB;}
	.st22{clip-path:url(#XMLID_293_);fill:#B9B2AF;}
	.st23{clip-path:url(#XMLID_293_);fill:#BDB6B3;}
	.st24{clip-path:url(#XMLID_293_);fill:#C0B9B7;}
	.st25{clip-path:url(#XMLID_293_);fill:#C4BDBB;}
	.st26{clip-path:url(#XMLID_293_);fill:#C7C0BE;}
	.st27{clip-path:url(#XMLID_293_);fill:#CAC3C1;}
	.st28{clip-path:url(#XMLID_293_);fill:#CCC7C5;}
	.st29{clip-path:url(#XMLID_293_);fill:#CFCAC8;}
	.st30{clip-path:url(#XMLID_293_);fill:#D2CCCB;}
	.st31{clip-path:url(#XMLID_293_);fill:#D4CFCD;}
	.st32{clip-path:url(#XMLID_293_);fill:#D6D2D0;}
	.st33{clip-path:url(#XMLID_293_);fill:#D9D4D3;}
	.st34{clip-path:url(#XMLID_293_);fill:#DBD7D5;}
	.st35{clip-path:url(#XMLID_293_);fill:#DDD9D7;}
	.st36{clip-path:url(#XMLID_293_);fill:#DFDBDA;}
	.st37{clip-path:url(#XMLID_293_);fill:#E1DDDC;}
	.st38{clip-path:url(#XMLID_293_);fill:#E3DFDE;}
	.st39{clip-path:url(#XMLID_293_);fill:#E4E1DF;}
	.st40{clip-path:url(#XMLID_293_);fill:#E6E3E1;}
	.st41{clip-path:url(#XMLID_293_);fill:#E7E4E3;}
	.st42{clip-path:url(#XMLID_293_);fill:#E9E6E5;}
	.st43{clip-path:url(#XMLID_293_);fill:#EAE7E6;}
	.st44{clip-path:url(#XMLID_293_);fill:#EBE9E8;}
	.st45{clip-path:url(#XMLID_293_);fill:#EDEAE9;}
	.st46{clip-path:url(#XMLID_293_);fill:#EEEBEA;}
	.st47{clip-path:url(#XMLID_293_);fill:#EFEDEC;}
	.st48{clip-path:url(#XMLID_293_);fill:#F0EEED;}
	.st49{clip-path:url(#XMLID_293_);fill:#F1EFEE;}
	.st50{clip-path:url(#XMLID_293_);fill:#F2F0EF;}
	.st51{clip-path:url(#XMLID_293_);fill:#F3F1F0;}
	.st52{clip-path:url(#XMLID_293_);fill:#F4F2F1;}
	.st53{clip-path:url(#XMLID_293_);fill:#F5F3F2;}
	.st54{clip-path:url(#XMLID_293_);fill:#F5F4F3;}
	.st55{clip-path:url(#XMLID_293_);fill:#F6F5F4;}
	.st56{clip-path:url(#XMLID_293_);fill:#F7F6F5;}
	.st57{clip-path:url(#XMLID_293_);fill:#F8F7F6;}
	.st58{clip-path:url(#XMLID_293_);fill:#F8F7F7;}
	.st59{clip-path:url(#XMLID_293_);fill:#F9F8F8;}
	.st60{clip-path:url(#XMLID_293_);fill:#FAF9F8;}
	.st61{clip-path:url(#XMLID_293_);fill:#FAF9F9;}
	.st62{clip-path:url(#XMLID_293_);fill:#FBFAFA;}
	.st63{clip-path:url(#XMLID_293_);fill:#FBFBFA;}
	.st64{clip-path:url(#XMLID_293_);fill:#FCFBFB;}
	.st65{clip-path:url(#XMLID_293_);fill:#FCFCFB;}
	.st66{clip-path:url(#XMLID_293_);fill:#FCFCFC;}
	.st67{clip-path:url(#XMLID_293_);fill:#FDFCFC;}
	.st68{clip-path:url(#XMLID_293_);fill:#FDFDFD;}
	.st69{clip-path:url(#XMLID_293_);fill:#FEFDFD;}
	.st70{clip-path:url(#XMLID_293_);fill:#FEFEFD;}
	.st71{clip-path:url(#XMLID_293_);fill:#FEFEFE;}
	.st72{clip-path:url(#XMLID_293_);fill:#FFFFFE;}
	.st73{clip-path:url(#XMLID_293_);fill:#FFFFFF;}
	.st74{fill:url(#XMLID_294_);}
	.st75{fill:url(#XMLID_295_);}
	.st76{fill:url(#XMLID_296_);}
	.st77{fill:url(#XMLID_297_);}
</style>
<g id="XMLID_28_">
	<g id="XMLID_29_">
		<g id="XMLID_30_">
			<linearGradient id="XMLID_282_" gradientUnits="userSpaceOnUse" x1="49.146" y1="7.7821" x2="40.3656" y2="19.0337">
				<stop  offset="0" style="stop-color:#6D6E71"/>
				<stop  offset="1" style="stop-color:#A7A9AC"/>
			</linearGradient>
			<path id="XMLID_161_" class="st0" d="M52.6,10.1c-0.7-1.1-1.7-2.1-2.9-2.7C49,7,48.2,6.7,47.4,6.5c-0.9-0.2-1.8-0.3-2.8-0.3h0h0
				h0c0,0,0,0,0,0h0c-0.8,0-1.6,0.1-2.3,0.3c-0.1,0-0.1,0-0.1,0c0,0,0.1,0,0.1,0c-0.1,0-0.2,0-0.3,0.1c0.1,0,0.3,0,0.4,0
				c0,0,0.1,0,0.1,0c-0.1,0-0.2,0-0.3,0.1c0.1,0,0.3,0,0.4,0c3.4,0.9,4.4,3.2,4.4,3.2c1.1,5.2-4.8,9.1-4.8,9.1l0,0
				c-1.6,0.9-3.2,1.2-4.7,0.9c-0.5-0.1-0.9-0.4-1.3-0.7c-2.3-1.9-2-6,0.7-9.2c1.1-1.3,2.4-2.3,3.7-2.8c-0.6,0.2-1.1,0.5-1.7,0.8
				c0.5-0.3,1-0.6,1.5-0.8c0,0-0.1,0-0.1,0c0,0,0.1,0,0.1,0c-0.9,0.3-1.7,0.7-2.5,1.2c-0.2,0.1-0.4,0.3-0.6,0.4
				c-2.6,1.8-4.4,4.2-5.3,6.9c-0.7,2.4-0.5,4.8,0.7,6.9c2,3.3,6.4,4.6,10.7,3.5c1.5-0.3,2.9-0.9,4.3-1.8c0.6-0.4,1.1-0.7,1.6-1.2
				C53.5,19.4,55,14,52.6,10.1z M42.4,6.4c0.1,0,0.3,0,0.4,0c0,0,0,0,0.1,0h0c-0.1,0-0.2,0-0.3,0.1C42.5,6.4,42.4,6.4,42.4,6.4z
				 M42.7,6.5c0.4,0,0.8,0,1.2,0.1c0.3,0.1,0.6,0.2,0.9,0.4C44,6.7,43.3,6.5,42.7,6.5z"/>
			<path id="XMLID_160_" class="st1" d="M47.1,22.8c0,0-0.1,0-0.1,0C47,22.8,47,22.8,47.1,22.8z"/>
			<path id="XMLID_159_" class="st1" d="M47.9,22.9c-0.1,0-0.2,0-0.3,0C47.6,22.9,47.7,22.9,47.9,22.9z"/>
			<path id="XMLID_158_" class="st1" d="M47.4,22.9c-0.1,0-0.1,0-0.2,0C47.3,22.9,47.4,22.9,47.4,22.9z"/>
			<path id="XMLID_157_" class="st1" d="M48.6,23c-0.1,0-0.2,0-0.3,0C48.4,23,48.5,23,48.6,23z"/>
			<path id="XMLID_156_" class="st1" d="M48.2,22.9c-0.1,0-0.2,0-0.3,0C48,22.9,48.1,22.9,48.2,22.9z"/>
			<path id="XMLID_155_" class="st1" d="M46.6,22.7C46.6,22.7,46.6,22.7,46.6,22.7c0.1,0,0.1,0,0.1,0C46.6,22.7,46.6,22.7,46.6,22.7
				C46.5,22.7,46.5,22.7,46.6,22.7z"/>
			<path id="XMLID_154_" class="st1" d="M46.2,22.6C46.3,22.6,46.3,22.6,46.2,22.6C46.3,22.6,46.2,22.6,46.2,22.6
				C46.2,22.6,46.2,22.6,46.2,22.6z"/>
			<g id="XMLID_147_">
				<path id="XMLID_149_" class="st2" d="M27.9,17.4c-0.9-1.1-2.2-1.9-3.9-2.5c4.2-3,4-6.6,4-6.6l0,0c0-0.1,0-0.3,0-0.4
					c0-2.2-0.8-4-2.4-5.5c-1.6-1.5-3.8-2.2-6.8-2.2h-0.1h-0.1H9.6H0.1H0.1H0v31h0.1h0.1h16.2h0.1c3.9,0,12.9-1.3,12.9-8.8
					C29.4,20.4,28.9,18.7,27.9,17.4z M9.1,6.5h5.1c1.4,0,2.4,0.3,3,0.8C17.7,7.7,18,8.4,18,9.3c0,1-0.3,1.7-0.9,2.2
					c-0.6,0.5-1.6,0.8-3.1,0.8h-5V6.5z M18.2,23.7c-0.7,0.6-1.8,0.9-3.4,0.9H9.1v-6.3h5.3h0.4c1.7,0,2.8,0.3,3.5,0.8
					c0.7,0.6,1,1.3,1,2.2C19.3,22.3,18.9,23.1,18.2,23.7z M23.8,15C23.8,15,23.9,15,23.8,15L23.8,15C23.9,15,23.8,15,23.8,15z"/>
				<linearGradient id="XMLID_283_" gradientUnits="userSpaceOnUse" x1="22.0427" y1="24.8779" x2="21.744" y2="13.922">
					<stop  offset="4.108010e-003" style="stop-color:#EFEFF0"/>
					<stop  offset="0.1493" style="stop-color:#E8E8E8"/>
					<stop  offset="0.3263" style="stop-color:#D7D5D5"/>
					<stop  offset="0.52" style="stop-color:#BDBBBB"/>
					<stop  offset="0.7254" style="stop-color:#9C9998"/>
					<stop  offset="0.9382" style="stop-color:#767271"/>
					<stop  offset="0.9464" style="stop-color:#75706F"/>
				</linearGradient>
				<path id="XMLID_148_" class="st3" d="M27.9,17.4c-0.9-1.1-2.2-1.9-3.9-2.5h-0.1c0,0,0,0,0.1,0c-2,1.4-5,2.6-9.5,3.3h0.4
					c1.7,0,2.8,0.3,3.5,0.8c0.7,0.6,1.1,1.3,1,2.2c-0.4,6.4,10.2,8.6,10.2,1.1C29.4,20.4,28.9,18.7,27.9,17.4z"/>
			</g>
			<linearGradient id="XMLID_284_" gradientUnits="userSpaceOnUse" x1="70.5017" y1="10.5906" x2="66.0697" y2="13.4027">
				<stop  offset="0.3149" style="stop-color:#FFFFFF"/>
				<stop  offset="0.4629" style="stop-color:#EDEBEB"/>
				<stop  offset="0.7035" style="stop-color:#CFCAC9"/>
				<stop  offset="1" style="stop-color:#A49D9B"/>
			</linearGradient>
			<path id="XMLID_146_" class="st4" d="M74.6,6.4C71.7,5.9,68.3,6,68.3,6c-3.6,0.9-3.7,4-3.7,4c-0.1,3.1,2,4.2,2,4.2
				c-1.8-2,1.8-2.2,1.8-2.2l0,0c1.5-0.1,3.2,0.1,3.2,0.1c2.5,0.3,4.4,1.4,4.4,1.4V8.3C76,6.7,74.6,6.4,74.6,6.4z"/>
			<linearGradient id="XMLID_285_" gradientUnits="userSpaceOnUse" x1="65.2525" y1="25.6115" x2="68.4061" y2="23.3107">
				<stop  offset="0" style="stop-color:#FFFFFF"/>
				<stop  offset="1" style="stop-color:#A49D9B"/>
			</linearGradient>
			<path id="XMLID_145_" class="st5" d="M68.7,23.3c0,0,1.7,2.4-4.5,2.1c0,0-4.4-0.3-6.8-1.3v4.2l0,0c0,0.7,0.4,1.4,0.9,1.8
				c0,0,0.1,0.1,0.2,0.1c0.1,0.1,0.3,0.1,0.5,0.2c2.3,0.6,4.7,0.8,7.8,0.8c0,0,3.7-1.1,3.8-4C70.7,27.1,71.1,24.4,68.7,23.3z"/>
			<linearGradient id="XMLID_286_" gradientUnits="userSpaceOnUse" x1="61.6398" y1="9.2928" x2="74.095" y2="28.5365">
				<stop  offset="1.335650e-002" style="stop-color:#EBEBEC"/>
				<stop  offset="0.1934" style="stop-color:#EEEEEF"/>
				<stop  offset="0.3595" style="stop-color:#F7F8F8"/>
				<stop  offset="0.4153" style="stop-color:#FFFFFF"/>
				<stop  offset="0.5611" style="stop-color:#F6F5F5"/>
				<stop  offset="0.6958" style="stop-color:#E5E3E2"/>
				<stop  offset="0.8262" style="stop-color:#CECAC8"/>
				<stop  offset="0.953" style="stop-color:#B1AAA8"/>
				<stop  offset="1" style="stop-color:#A49D9B"/>
			</linearGradient>
			<path id="XMLID_144_" class="st6" d="M72.3,16.4L72.3,16.4c-0.6-0.2-3.1-1.1-4.3-1.5c-1.8-0.7-2.5-1.7-2.9-2.4
				C64.5,11,63.7,7.5,68.3,6c0,0-6.6-0.1-9.4,3.5c0,0-3.5,4.2,0,8.6c0,0,1.1,1.7,5.4,3.1c0,0,5,2,5.8,3.2c0.4,0.5,2.3,4.7-3.2,6.7
				c0,0,9.6-0.1,10.6-7.1C77.5,24.1,78.6,18.7,72.3,16.4z"/>
			<g id="XMLID_142_">
				<linearGradient id="XMLID_287_" gradientUnits="userSpaceOnUse" x1="68.9959" y1="26.7803" x2="66.5219" y2="30.5354">
					<stop  offset="0" style="stop-color:#6D6E71"/>
					<stop  offset="1" style="stop-color:#A7A9AC"/>
				</linearGradient>
				<path id="XMLID_143_" class="st7" d="M66.9,31.2c4.1-1.6,3.8-4.7,3.8-4.7c0-2-2-3.1-2-3.1c0,0,2.1,1,2.1,3.1c0,0,0.3,3-3.5,4.7
					C67.2,31.2,66.9,31.2,66.9,31.2z"/>
			</g>
			<g id="XMLID_140_">
				<linearGradient id="XMLID_288_" gradientUnits="userSpaceOnUse" x1="65.3319" y1="12.7734" x2="67.2051" y2="6.2584">
					<stop  offset="0" style="stop-color:#6D6E71"/>
					<stop  offset="1" style="stop-color:#A7A9AC"/>
				</linearGradient>
				<path id="XMLID_141_" class="st8" d="M66.1,13.8C64,12,64.7,9.2,64.7,9.2C65.3,7.1,67.1,6.3,68,6h0.5c0,0,0,0-0.1,0
					c-0.5,0.1-2.9,0.9-3.6,3.2c0,0-0.7,2.9,1.6,4.7c0.1,0.1,0.2,0.1,0.2,0.2C66.6,14.1,66.2,13.9,66.1,13.8z"/>
			</g>
			<g id="XMLID_41_">
				<path id="XMLID_139_" class="st9" d="M113.7,17.4C113.7,17.4,113.7,17.4,113.7,17.4C113.7,17.4,113.7,17.4,113.7,17.4
					C113.7,17.4,113.7,17.4,113.7,17.4z"/>
				<linearGradient id="XMLID_289_" gradientUnits="userSpaceOnUse" x1="90.9571" y1="12.8851" x2="99.8636" y2="7.974">
					<stop  offset="0" style="stop-color:#FFFFFF"/>
					<stop  offset="0.2687" style="stop-color:#FBFBFB"/>
					<stop  offset="0.4556" style="stop-color:#F2F2F3"/>
					<stop  offset="0.6177" style="stop-color:#E5E6E7"/>
					<stop  offset="0.7656" style="stop-color:#D3D4D6"/>
					<stop  offset="0.9027" style="stop-color:#BBBDBF"/>
					<stop  offset="1" style="stop-color:#A7A9AC"/>
				</linearGradient>
				<polygon id="XMLID_138_" class="st10" points="102.7,0 77.1,0 77.1,6.7 86.3,6.7 86.3,31 95.3,31 95.3,6.7 102.7,6.7 				"/>
				<linearGradient id="XMLID_290_" gradientUnits="userSpaceOnUse" x1="118.705" y1="15.2977" x2="112.4155" y2="1.7189">
					<stop  offset="0" style="stop-color:#6D6E71"/>
					<stop  offset="1" style="stop-color:#A7A9AC"/>
				</linearGradient>
				<path id="XMLID_137_" class="st11" d="M123.1,0L123.1,0c-1.9,0.1-3.3,1.3-4,3.1c-0.4,1-3.4,8.4-5.7,14.1c0,0,0,0,0,0.1l0,0
					c-2.3-5.7-5.3-13.2-5.8-14.2c-0.6-1.9-2.1-3.1-4-3.1v0H96v0H93c0,0,3.6,0.6,5.8,5.4l7.4,17.3l2,4.6c0,0,0,0,0,0l0,0.1l0,0
					c0.9,2.1,2.9,3.6,5.2,3.6c2.3,0,4.3-1.5,5.2-3.6h0l0-0.1c0,0,0,0,0,0l3.9-9.1L130.3,0H123.1z"/>
				<linearGradient id="XMLID_291_" gradientUnits="userSpaceOnUse" x1="105.8954" y1="11.6901" x2="111.269" y2="22.0624">
					<stop  offset="0.3149" style="stop-color:#FFFFFF"/>
					<stop  offset="0.4629" style="stop-color:#EDEBEB"/>
					<stop  offset="0.7035" style="stop-color:#CFCAC9"/>
					<stop  offset="1" style="stop-color:#A49D9B"/>
				</linearGradient>
				<path id="XMLID_136_" class="st12" d="M113.7,17.3c-2.3-5.7-5.3-13.2-5.8-14.2c-0.6-1.9-2.1-3.1-4-3.1l0,0h-7.6v0h-3.1
					c0,0,3.6,0.6,5.8,5.4l7.4,17.2C108.7,27.5,112.1,20.9,113.7,17.3z"/>
				<linearGradient id="XMLID_292_" gradientUnits="userSpaceOnUse" x1="115.7818" y1="20.338" x2="121.6709" y2="6.9488">
					<stop  offset="0" style="stop-color:#6D6E71"/>
					<stop  offset="1" style="stop-color:#A7A9AC"/>
				</linearGradient>
				<path id="XMLID_135_" class="st13" d="M123.1,0L123.1,0c-1.9,0.1-3.3,1.3-4,3.1c-0.4,1-3.4,8.4-5.7,14.1
					c0.5-1.2,0.9-2.1,0.9-2.1s-0.3,0.9-0.9,2.1c0,0,0,0,0,0.1c0,0,0,0,0,0c-1.2,2.6-3.3,6.8-5.2,7.1c-0.1,0-0.1,0.2,0,0.6
					c0.5,1.6,3.3,6,5.2,6c2.3,0,4.3-1.5,5.2-3.6l0,0l0-0.1c0,0,0,0,0,0l3.9-9.1L130.3,0H123.1z"/>
				<g id="XMLID_42_">
					<g id="XMLID_43_">
						<defs>
							<path id="XMLID_44_" d="M123.4,0L123.4,0c-1.9,0.1-3.3,1.3-4,3.1c-0.4,1-3.4,8.4-5.7,14.1c0.5-1.2,0.9-2.1,0.9-2.1
								s-0.3,0.9-0.9,2.1c0,0,0,0,0,0.1c0,0,0,0,0,0c-1.6,3.6-5,10.2-7.2,5.4l2,4.6c0,0,0,0,0,0l0,0.1l0,0c0.9,2.1,2.9,3.6,5.2,3.6
								c2.3,0,4.3-1.5,5.2-3.6l0,0l0-0.1c0,0,0,0,0,0l3.9-9.1L130.6,0H123.4z"/>
						</defs>
						<clipPath id="XMLID_293_">
							<use xlink:href="#XMLID_44_"  style="overflow:visible;"/>
						</clipPath>
						<rect id="XMLID_134_" x="106.5" y="0" class="st14" width="24.1" height="31"/>
						<path id="XMLID_133_" class="st14" d="M132.1-1.5V9.1h6.6c-6.4,15.4-18.6,25-27.1,21.4c-8.6-3.6-10.3-19-3.8-34.3v2.4H132.1z"
							/>
						<path id="XMLID_132_" class="st15" d="M132.1-1.5V9.1h6.4c-6.4,15.2-18.4,24.7-26.8,21.1c-8.5-3.5-10.1-18.7-3.8-34v2.3H132.1
							z"/>
						<path id="XMLID_131_" class="st16" d="M132.1-1.5V9h6.2c-6.3,15-18.2,24.4-26.5,20.9c-8.4-3.5-10-18.5-3.7-33.6v2.2H132.1z"/>
						<path id="XMLID_130_" class="st17" d="M132.1-1.5V8.9h6c-6.2,14.9-18,24.1-26.2,20.7c-8.3-3.5-9.9-18.3-3.7-33.2v2.1H132.1z"
							/>
						<path id="XMLID_129_" class="st18" d="M132.1-1.5V8.8h5.9c-6.2,14.7-17.8,23.8-25.9,20.4c-8.2-3.4-9.8-18.1-3.6-32.8v2.1
							H132.1z"/>
						<path id="XMLID_128_" class="st19" d="M132.1-1.5V8.8h5.7c-6.1,14.5-17.6,23.6-25.6,20.2c-8.1-3.4-9.7-17.9-3.6-32.4v2H132.1z
							"/>
						<path id="XMLID_127_" class="st20" d="M132.1-1.5V8.7h5.5c-6,14.4-17.3,23.3-25.3,19.9c-8-3.3-9.6-17.7-3.6-32v1.9H132.1z"/>
						<path id="XMLID_126_" class="st21" d="M132.1-1.5V8.6h5.3c-5.9,14.2-17.1,23-25,19.7c-7.9-3.3-9.5-17.5-3.5-31.6v1.8H132.1z"
							/>
						<path id="XMLID_125_" class="st22" d="M132.1-1.5v10h5.2c-5.9,14-16.9,22.7-24.7,19.5c-7.8-3.3-9.3-17.3-3.5-31.3v1.8H132.1z"
							/>
						<path id="XMLID_124_" class="st23" d="M132.1-1.5v10h5c-5.8,13.8-16.7,22.4-24.4,19.2c-7.7-3.2-9.2-17-3.4-30.9v1.7H132.1z"/>
						<path id="XMLID_123_" class="st24" d="M132.1-1.5v9.9h4.8c-5.7,13.7-16.5,22.2-24.1,19c-7.6-3.2-9.1-16.8-3.4-30.5v1.6H132.1z
							"/>
						<path id="XMLID_122_" class="st25" d="M132.1-1.5v9.8h4.6c-5.6,13.5-16.3,21.9-23.8,18.7c-7.5-3.1-9-16.6-3.3-30.1v1.5H132.1z
							"/>
						<path id="XMLID_121_" class="st26" d="M132.1-1.5v9.7h4.5c-5.6,13.3-16.1,21.6-23.5,18.5c-7.4-3.1-8.9-16.4-3.3-29.7v1.5
							H132.1z"/>
						<path id="XMLID_120_" class="st27" d="M132.1-1.5v9.7h4.3c-5.5,13.1-15.9,21.3-23.2,18.3c-7.3-3.1-8.8-16.2-3.3-29.3v1.4
							H132.1z"/>
						<path id="XMLID_119_" class="st28" d="M132.1-1.5v9.6h4.1c-5.4,13-15.7,21-22.9,18c-7.2-3-8.6-16-3.2-28.9v1.3H132.1z"/>
						<path id="XMLID_118_" class="st29" d="M132.1-1.5V8h4c-5.4,12.8-15.5,20.8-22.6,17.8c-7.1-3-8.5-15.8-3.2-28.6v1.3H132.1z"/>
						<path id="XMLID_117_" class="st30" d="M132.1-1.5V8h3.8c-5.3,12.6-15.3,20.5-22.3,17.5c-7-2.9-8.4-15.6-3.1-28.2v1.2H132.1z"
							/>
						<path id="XMLID_116_" class="st31" d="M132.1-1.5v9.4h3.6c-5.2,12.4-15,20.2-22,17.3c-6.9-2.9-8.3-15.3-3.1-27.8v1.1H132.1z"
							/>
						<path id="XMLID_115_" class="st32" d="M132.1-1.5v9.3h3.4c-5.1,12.3-14.8,19.9-21.7,17.1c-6.8-2.9-8.2-15.1-3-27.4v1H132.1z"
							/>
						<path id="XMLID_114_" class="st33" d="M132.1-1.5v9.2h3.3c-5.1,12.1-14.6,19.6-21.4,16.8c-6.7-2.8-8.1-14.9-3-27v1H132.1z"/>
						<path id="XMLID_113_" class="st34" d="M132.1-1.5v9.2h3.1c-5,11.9-14.4,19.3-21,16.6c-6.6-2.8-8-14.7-3-26.6v0.9H132.1z"/>
						<path id="XMLID_112_" class="st35" d="M132.1-1.5L132.1-1.5l0,9.1h2.9c-4.9,11.8-14.2,19.1-20.7,16.3
							c-6.5-2.7-7.8-14.5-2.9-26.2v0.8H132.1z"/>
						<path id="XMLID_111_" class="st36" d="M132-1.5h0.1v9h2.7c-4.9,11.6-14,18.8-20.4,16.1c-6.4-2.7-7.7-14.3-2.9-25.9v0.7H132z"
							/>
						<path id="XMLID_110_" class="st37" d="M131.8-1.5h0.3v8.9h2.6c-4.8,11.4-13.8,18.5-20.1,15.9c-6.3-2.7-7.6-14.1-2.8-25.5v0.7
							H131.8z"/>
						<path id="XMLID_109_" class="st38" d="M131.7-1.5h0.4v8.9h2.4c-4.7,11.2-13.6,18.2-19.8,15.6c-6.2-2.6-7.5-13.8-2.8-25.1v0.6
							H131.7z"/>
						<path id="XMLID_108_" class="st39" d="M131.6-1.5h0.5v8.8h2.2c-4.6,11.1-13.4,17.9-19.5,15.4C108.6,20.1,107.4,9,112-2v0.5
							H131.6z"/>
						<path id="XMLID_107_" class="st40" d="M131.4-1.5h0.7v8.7h2c-4.6,10.9-13.2,17.7-19.2,15.1c-6.1-2.5-7.3-13.4-2.7-24.3v0.5
							H131.4z"/>
						<path id="XMLID_106_" class="st41" d="M131.3-1.5h0.8v8.7h1.9c-4.5,10.7-13,17.4-18.9,14.9c-6-2.5-7.1-13.2-2.7-23.9v0.4
							H131.3z"/>
						<path id="XMLID_105_" class="st42" d="M131.2-1.5h0.9v8.6h1.7c-4.4,10.5-12.7,17.1-18.6,14.7c-5.9-2.5-7-13-2.6-23.5v0.3
							H131.2z"/>
						<path id="XMLID_104_" class="st43" d="M131-1.5h1.1V7h1.5c-4.3,10.4-12.5,16.8-18.3,14.4c-5.8-2.4-6.9-12.8-2.6-23.2v0.2H131z
							"/>
						<path id="XMLID_103_" class="st44" d="M130.9-1.5h1.2v8.4h1.3c-4.3,10.2-12.3,16.5-18,14.2c-5.7-2.4-6.8-12.6-2.5-22.8v0.2
							H130.9z"/>
						<path id="XMLID_102_" class="st45" d="M130.8-1.5h1.3v8.4h1.2c-4.2,10-12.1,16.3-17.7,13.9c-5.6-2.3-6.7-12.4-2.5-22.4v0.1
							H130.8z"/>
						<path id="XMLID_101_" class="st46" d="M130.6-1.5h1.4v8.3h1c-4.1,9.9-11.9,16-17.4,13.7c-5.5-2.3-6.6-12.1-2.4-22v0H130.6z"/>
						<path id="XMLID_100_" class="st47" d="M130.5-1.5h1.6v8.2h0.8c-4.1,9.7-11.7,15.7-17.1,13.4c-5.4-2.2-6.5-11.9-2.4-21.6
							c1-2.4,2.2-4.6,3.6-6.5v6.4H130.5z"/>
						<path id="XMLID_99_" class="st48" d="M130.4-1.5h1.7v8.1h0.6c-4,9.5-11.5,15.4-16.8,13.2c-5.3-2.2-6.3-11.7-2.4-21.2
							c1-2.4,2.2-4.5,3.6-6.4v6.3H130.4z"/>
						<path id="XMLID_98_" class="st49" d="M130.3-1.5h1.8v8.1h0.5c-3.9,9.3-11.3,15.1-16.5,13c-5.2-2.2-6.2-11.5-2.3-20.8
							c1-2.3,2.2-4.5,3.5-6.3v6.1H130.3z"/>
						<path id="XMLID_97_" class="st50" d="M130.1-1.5h2v8h0.3c-3.8,9.2-11.1,14.9-16.2,12.7c-5.1-2.1-6.1-11.3-2.3-20.5
							c1-2.3,2.1-4.4,3.4-6.2v5.9H130.1z"/>
						<path id="XMLID_96_" class="st51" d="M130-1.5h2.1v7.9h0.1c-3.8,9-10.9,14.6-15.9,12.5c-5-2.1-6-11.1-2.2-20.1
							c1.9-4.5,4.6-8.1,7.5-10.4v10.1H130z"/>
						<path id="XMLID_95_" class="st52" d="M129.9-1.5h2.2l2.1-4.5c0.4,3.6-0.3,8-2.1,12.4c-3.7,8.8-10.7,14.3-15.6,12.2
							c-4.9-2.1-5.9-10.9-2.2-19.7c1.8-4.4,4.5-8,7.3-10.2v9.8H129.9z"/>
						<path id="XMLID_94_" class="st53" d="M129.7-1.5h2.4l1.9-4.4c0.4,3.5-0.3,7.8-2.1,12.1c-3.6,8.6-10.5,14-15.3,12
							c-4.8-2-5.8-10.7-2.1-19.3c1.8-4.3,4.4-7.8,7.2-10v9.5H129.7z"/>
						<path id="XMLID_93_" class="st54" d="M129.6-1.5h2.5l1.7-4.2c0.4,3.4-0.3,7.7-2,11.9c-3.5,8.5-10.2,13.7-14.9,11.8
							c-4.7-2-5.6-10.4-2.1-18.9c1.8-4.2,4.3-7.7,7-9.8v9.2H129.6z"/>
						<path id="XMLID_92_" class="st55" d="M129.5-1.5h2.6l1.4-4c0.4,3.4-0.3,7.5-2,11.7c-3.5,8.3-10,13.5-14.6,11.5
							c-4.6-1.9-5.5-10.2-2.1-18.5c1.7-4.2,4.2-7.5,6.9-9.6v9H129.5z"/>
						<path id="XMLID_91_" class="st56" d="M129.3-1.5h2.8l1.2-3.8c0.4,3.3-0.3,7.3-2,11.4c-3.4,8.1-9.8,13.2-14.3,11.3
							c-4.5-1.9-5.4-10-2-18.1c1.7-4.1,4.2-7.4,6.8-9.4v8.7H129.3z"/>
						<path id="XMLID_90_" class="st57" d="M129.2-11.8c4.4,1.9,5.3,9.8,2,17.8c-3.3,8-9.6,12.9-14,11c-4.4-1.9-5.3-9.8-2-17.8
							c1.7-4,4.1-7.2,6.6-9.2v8.4h7.4V-11.8z"/>
						<path id="XMLID_89_" class="st58" d="M129.1-11.4c4.3,1.8,5.2,9.6,1.9,17.4c-3.3,7.8-9.4,12.6-13.7,10.8
							c-4.3-1.8-5.2-9.6-1.9-17.4c1.6-3.9,4-7,6.5-9v8.1h7.3V-11.4z"/>
						<path id="XMLID_88_" class="st59" d="M128.9-11.1c4.2,1.8,5.1,9.4,1.9,17c-3.2,7.6-9.2,12.3-13.4,10.6
							c-4.2-1.8-5.1-9.4-1.9-17c1.6-3.8,3.9-6.9,6.3-8.8v7.9h7.1V-11.1z"/>
						<path id="XMLID_87_" class="st60" d="M128.8-10.8c4.1,1.7,5,9.2,1.8,16.6c-3.1,7.4-9,12.1-13.1,10.3c-4.1-1.7-5-9.2-1.8-16.6
							c1.6-3.7,3.8-6.7,6.2-8.6v7.6h6.9V-10.8z"/>
						<path id="XMLID_86_" class="st61" d="M128.7-10.5c4,1.7,4.8,8.9,1.8,16.2c-3,7.3-8.8,11.8-12.8,10.1c-4-1.7-4.8-8.9-1.8-16.2
							c1.5-3.6,3.7-6.6,6-8.4v7.3h6.8V-10.5z"/>
						<path id="XMLID_85_" class="st62" d="M128.5-10.2c3.9,1.7,4.7,8.7,1.8,15.8c-3,7.1-8.6,11.5-12.5,9.8
							c-3.9-1.7-4.7-8.7-1.8-15.8c1.5-3.5,3.6-6.4,5.9-8.2v7.1h6.6V-10.2z"/>
						<path id="XMLID_84_" class="st63" d="M128.4-9.9c3.8,1.6,4.6,8.5,1.7,15.4c-2.9,6.9-8.4,11.2-12.2,9.6
							c-3.8-1.6-4.6-8.5-1.7-15.4C119.1-7.2,124.6-11.5,128.4-9.9z"/>
						<path id="XMLID_83_" class="st64" d="M128.3-9.6C132-8,132.8-1.3,130,5.5c-2.8,6.7-8.2,10.9-11.9,9.4c-3.7-1.6-4.5-8.3-1.7-15
							C119.2-6.9,124.5-11.1,128.3-9.6z"/>
						<path id="XMLID_82_" class="st65" d="M128.2-9.3c3.6,1.5,4.4,8.1,1.6,14.7c-2.8,6.6-7.9,10.7-11.6,9.1
							c-3.7-1.5-4.4-8.1-1.6-14.7C119.3-6.7,124.5-10.8,128.2-9.3z"/>
						<path id="XMLID_81_" class="st66" d="M128-8.9c3.6,1.5,4.3,7.9,1.6,14.3c-2.7,6.4-7.7,10.4-11.3,8.9
							c-3.6-1.5-4.3-7.9-1.6-14.3C119.4-6.5,124.5-10.4,128-8.9z"/>
						<path id="XMLID_80_" class="st67" d="M127.9-8.6c3.5,1.4,4.1,7.7,1.5,13.9c-2.6,6.2-7.5,10.1-11,8.6
							c-3.5-1.4-4.2-7.7-1.5-13.9C119.5-6.2,124.4-10.1,127.9-8.6z"/>
						<path id="XMLID_79_" class="st68" d="M127.8-8.3c3.4,1.4,4,7.5,1.5,13.5c-2.5,6.1-7.3,9.8-10.7,8.4c-3.4-1.4-4-7.5-1.5-13.5
							C119.6-6,124.4-9.7,127.8-8.3z"/>
						
							<ellipse id="XMLID_78_" transform="matrix(0.3863 -0.9224 0.9224 0.3863 73.1544 115.2301)" class="st68" cx="123.2" cy="2.6" rx="11.5" ry="6.4"/>
						<path id="XMLID_77_" class="st69" d="M127.5-7.7c3.2,1.3,3.8,7,1.4,12.7c-2.4,5.7-6.9,9.2-10.1,7.9c-3.2-1.3-3.8-7-1.4-12.7
							C119.8-5.5,124.3-9,127.5-7.7z"/>
						<path id="XMLID_76_" class="st70" d="M127.4-7.4c3.1,1.3,3.7,6.8,1.4,12.3c-2.3,5.5-6.7,9-9.8,7.7c-3.1-1.3-3.7-6.8-1.4-12.3
							C119.9-5.2,124.3-8.7,127.4-7.4z"/>
						
							<ellipse id="XMLID_75_" transform="matrix(0.3862 -0.9224 0.9224 0.3862 73.1699 115.2386)" class="st71" cx="123.2" cy="2.6" rx="10.5" ry="5.8"/>
						<path id="XMLID_74_" class="st71" d="M127.1-6.7c2.9,1.2,3.5,6.4,1.3,11.6c-2.2,5.2-6.3,8.4-9.2,7.2
							c-2.9-1.2-3.5-6.4-1.3-11.6C120.1-4.7,124.2-8,127.1-6.7z"/>
						<path id="XMLID_73_" class="st71" d="M127-6.4c2.8,1.2,3.3,6.2,1.2,11.2c-2.1,5-6.1,8.1-8.8,7c-2.8-1.2-3.3-6.2-1.2-11.2
							C120.2-4.5,124.2-7.6,127-6.4z"/>
						<path id="XMLID_72_" class="st71" d="M126.8-6.1c2.7,1.1,3.2,6,1.2,10.8c-2,4.8-5.8,7.9-8.5,6.7c-2.7-1.1-3.2-6-1.2-10.8
							C120.3-4.2,124.2-7.2,126.8-6.1z"/>
						<path id="XMLID_71_" class="st71" d="M126.7-5.8c2.6,1.1,3.1,5.8,1.2,10.4c-2,4.7-5.6,7.6-8.2,6.5c-2.6-1.1-3.1-5.8-1.2-10.4
							C120.4-4,124.1-6.9,126.7-5.8z"/>
						<path id="XMLID_70_" class="st72" d="M126.6-5.5c2.5,1,3,5.5,1.1,10c-1.9,4.5-5.4,7.3-7.9,6.2c-2.5-1-3-5.5-1.1-10
							C120.5-3.7,124.1-6.5,126.6-5.5z"/>
						<path id="XMLID_69_" class="st73" d="M126.4-5.2c2.4,1,2.9,5.3,1.1,9.6c-1.8,4.3-5.2,7-7.6,6c-2.4-1-2.9-5.3-1.1-9.6
							C120.6-3.5,124.1-6.2,126.4-5.2z"/>
						<path id="XMLID_68_" class="st73" d="M126.3-4.9c2.3,1,2.8,5.1,1,9.3c-1.7,4.1-5,6.7-7.3,5.8c-2.3-1-2.8-5.1-1-9.3
							C120.7-3.3,124-5.8,126.3-4.9z"/>
						<path id="XMLID_67_" class="st73" d="M126.2-4.6c2.2,0.9,2.6,4.9,1,8.9c-1.7,4-4.8,6.4-7,5.5c-2.2-0.9-2.7-4.9-1-8.9
							C120.8-3,124-5.5,126.2-4.6z"/>
						<path id="XMLID_66_" class="st73" d="M126.1-4.2c2.1,0.9,2.5,4.7,0.9,8.5c-1.6,3.8-4.6,6.2-6.7,5.3c-2.1-0.9-2.5-4.7-0.9-8.5
							C120.9-2.8,123.9-5.1,126.1-4.2z"/>
						<path id="XMLID_65_" class="st73" d="M125.9-3.9c2,0.9,2.4,4.5,0.9,8.1c-1.5,3.6-4.4,5.9-6.4,5c-2-0.8-2.4-4.5-0.9-8.1
							C121-2.5,123.9-4.8,125.9-3.9z"/>
						<path id="XMLID_64_" class="st73" d="M125.8-3.6c1.9,0.8,2.3,4.3,0.9,7.7c-1.4,3.5-4.2,5.6-6.1,4.8c-1.9-0.8-2.3-4.3-0.9-7.7
							C121.1-2.3,123.9-4.4,125.8-3.6z"/>
						<path id="XMLID_63_" class="st73" d="M125.7-3.3c1.8,0.8,2.2,4,0.8,7.3c-1.4,3.3-4,5.3-5.8,4.6c-1.8-0.8-2.2-4-0.8-7.3
							C121.2-2,123.8-4.1,125.7-3.3z"/>
						<path id="XMLID_62_" class="st73" d="M125.5-3c1.7,0.7,2.1,3.8,0.8,6.9c-1.3,3.1-3.8,5-5.5,4.3c-1.7-0.7-2.1-3.8-0.8-6.9
							C121.3-1.8,123.8-3.7,125.5-3z"/>
						
							<ellipse id="XMLID_61_" transform="matrix(0.3862 -0.9224 0.9224 0.3862 73.1703 115.2388)" class="st73" cx="123.2" cy="2.6" rx="5.8" ry="3.2"/>
						<path id="XMLID_60_" class="st73" d="M125.3-2.4c1.5,0.6,1.8,3.4,0.7,6.2c-1.2,2.8-3.3,4.5-4.9,3.8c-1.5-0.6-1.8-3.4-0.7-6.2
							C121.5-1.3,123.7-3,125.3-2.4z"/>
						<path id="XMLID_59_" class="st73" d="M125.1-2.1c1.4,0.6,1.7,3.2,0.6,5.8c-1.1,2.6-3.1,4.2-4.6,3.6c-1.4-0.6-1.7-3.2-0.6-5.8
							C121.6-1,123.7-2.7,125.1-2.1z"/>
						<path id="XMLID_58_" class="st73" d="M125-1.7c1.3,0.6,1.6,3,0.6,5.4c-1,2.4-2.9,3.9-4.3,3.4c-1.3-0.6-1.6-3-0.6-5.4
							C121.7-0.8,123.7-2.3,125-1.7z"/>
						<path id="XMLID_57_" class="st73" d="M124.9-1.4c1.2,0.5,1.5,2.8,0.6,5c-0.9,2.2-2.7,3.6-4,3.1c-1.2-0.5-1.5-2.8-0.6-5
							C121.9-0.6,123.6-2,124.9-1.4z"/>
						<path id="XMLID_56_" class="st73" d="M124.7-1.1c1.2,0.5,1.4,2.6,0.5,4.6c-0.9,2.1-2.5,3.4-3.7,2.9c-1.2-0.5-1.4-2.6-0.5-4.6
							C122-0.3,123.6-1.6,124.7-1.1z"/>
						<path id="XMLID_55_" class="st73" d="M124.6-0.8c1.1,0.4,1.3,2.3,0.5,4.2c-0.8,1.9-2.3,3.1-3.4,2.6c-1.1-0.4-1.3-2.3-0.5-4.2
							C122.1-0.1,123.6-1.2,124.6-0.8z"/>
						<path id="XMLID_54_" class="st73" d="M124.5-0.5c1,0.4,1.2,2.1,0.4,3.9c-0.7,1.7-2.1,2.8-3,2.4c-1-0.4-1.2-2.1-0.4-3.9
							C122.2,0.2,123.5-0.9,124.5-0.5z"/>
						<path id="XMLID_53_" class="st73" d="M124.3-0.2c0.9,0.4,1,1.9,0.4,3.5c-0.7,1.6-1.9,2.5-2.7,2.2c-0.9-0.4-1-1.9-0.4-3.5
							C122.3,0.4,123.5-0.5,124.3-0.2z"/>
						<path id="XMLID_52_" class="st73" d="M124.2,0.1c0.8,0.3,0.9,1.7,0.3,3.1c-0.6,1.4-1.7,2.2-2.4,1.9c-0.8-0.3-0.9-1.7-0.3-3.1
							C122.4,0.7,123.5-0.2,124.2,0.1z"/>
						<path id="XMLID_51_" class="st73" d="M124.1,0.4c0.7,0.3,0.8,1.5,0.3,2.7c-0.5,1.2-1.5,2-2.1,1.7c-0.7-0.3-0.8-1.5-0.3-2.7
							C122.5,0.9,123.4,0.2,124.1,0.4z"/>
						<path id="XMLID_50_" class="st73" d="M124,0.8c0.6,0.2,0.7,1.3,0.3,2.3c-0.4,1-1.3,1.7-1.8,1.4c-0.6-0.2-0.7-1.3-0.3-2.3
							C122.6,1.2,123.4,0.5,124,0.8z"/>
						<path id="XMLID_49_" class="st73" d="M123.8,1.1c0.5,0.2,0.6,1.1,0.2,1.9c-0.4,0.9-1,1.4-1.5,1.2c-0.5-0.2-0.6-1.1-0.2-1.9
							S123.3,0.9,123.8,1.1z"/>
						<path id="XMLID_48_" class="st73" d="M123.7,1.4c0.4,0.2,0.5,0.9,0.2,1.5c-0.3,0.7-0.8,1.1-1.2,1c-0.4-0.2-0.5-0.9-0.2-1.5
							C122.8,1.7,123.3,1.2,123.7,1.4z"/>
						<path id="XMLID_47_" class="st73" d="M123.6,1.7c0.3,0.1,0.3,0.6,0.1,1.2c-0.2,0.5-0.6,0.8-0.9,0.7c-0.3-0.1-0.3-0.6-0.1-1.2
							C122.9,1.9,123.3,1.6,123.6,1.7z"/>
						<path id="XMLID_46_" class="st73" d="M123.4,2c0.2,0.1,0.2,0.4,0.1,0.8c-0.1,0.3-0.4,0.6-0.6,0.5c-0.2-0.1-0.2-0.4-0.1-0.8
							C123,2.1,123.2,1.9,123.4,2z"/>
						<path id="XMLID_45_" class="st73" d="M123.3,2.3c0.1,0,0.1,0.2,0,0.4C123.3,2.9,123.1,3,123,3c-0.1,0-0.1-0.2,0-0.4
							C123.1,2.4,123.2,2.3,123.3,2.3z"/>
					</g>
				</g>
			</g>
			<linearGradient id="XMLID_294_" gradientUnits="userSpaceOnUse" x1="41.0088" y1="19.4959" x2="45.3469" y2="8.5399">
				<stop  offset="0" style="stop-color:#FFFFFF"/>
				<stop  offset="1" style="stop-color:#A49D9B"/>
			</linearGradient>
			<path id="XMLID_37_" class="st74" d="M52.3,10c-0.7-1.2-1.7-2.1-2.8-2.7c-0.7-0.4-1.5-0.7-2.4-0.9C46.3,6.1,45.3,6,44.3,6h0l0,0
				c0,0,0,0,0,0h0h0c-0.8,0-1.6,0.1-2.3,0.3c-0.1,0-0.1,0-0.1,0c0,0,0.1,0,0.1,0c-0.1,0-0.2,0-0.3,0.1c0.1,0,0.3,0,0.4,0
				c0,0,0.1,0,0.1,0c-0.1,0-0.2,0-0.3,0.1c0.1,0,0.3,0,0.4,0c3.4,0.9,4.4,3.2,4.4,3.2c1.1,5.2-4.8,9.1-4.8,9.1l0,0
				c-1.6,0.9-3.2,1.2-4.7,0.8c-0.5-0.1-0.9-0.4-1.3-0.7c-2.3-1.9-2-6,0.7-9.2c1.1-1.3,2.4-2.3,3.7-2.8c-0.6,0.2-1.2,0.5-1.7,0.8
				c0.5-0.3,1-0.6,1.5-0.8c0,0-0.1,0-0.1,0c0,0,0.1,0,0.1,0c-0.8,0.3-1.7,0.7-2.5,1.2c-0.2,0.1-0.4,0.3-0.6,0.4
				c-2.6,1.8-4.4,4.2-5.3,6.9c-0.7,2.4-0.5,4.8,0.7,6.9c2.1,3.3,6.4,4.6,10.7,3.6c1.4-0.3,2.9-0.9,4.3-1.8c0.6-0.4,1.1-0.7,1.6-1.1
				C53.2,19.3,54.8,13.9,52.3,10z M42.1,6.3c0.1,0,0.2,0,0.4,0c0,0,0.1,0,0.1,0h0c-0.1,0-0.2,0-0.3,0C42.2,6.3,42.2,6.3,42.1,6.3z
				 M42.5,6.4c0.4,0,0.8,0,1.2,0.1c0.3,0.1,0.6,0.2,0.9,0.4C43.8,6.6,43,6.4,42.5,6.4z"/>
			<linearGradient id="XMLID_295_" gradientUnits="userSpaceOnUse" x1="50.0005" y1="23.9427" x2="40.7522" y2="16.3994">
				<stop  offset="0" style="stop-color:#FFFFFF"/>
				<stop  offset="1" style="stop-color:#928C8B"/>
			</linearGradient>
			<path id="XMLID_34_" class="st75" d="M56.1,17.5L56.1,17.5C56.1,17.5,56.1,17.5,56.1,17.5C56.1,17.5,56.1,17.5,56.1,17.5
				L56.1,17.5c-0.2,0.2-0.4,0.5-0.4,0.5c-1.1,2.5-3.5,5.2-8.8,4.7c-0.1,0-0.2,0-0.3-0.1c0,0,0,0-0.1,0c0,0,0,0-0.1,0c0,0,0,0,0,0
				c-0.1,0-0.2,0-0.2-0.1c0,0,0,0,0,0c0,0,0,0,0,0c-2.9-0.9-4.9-3.4-4.9-6.4c0-3.8,3.3-6.8,7.3-6.8c1.5,0,3.1,0.6,4.2,1.5l-0.2-0.4
				c-1.9-4-6.4-4.6-8.2-4.6h0c0,0,0,0,0,0c-0.9,0-1.8,0.1-2.7,0.3c-0.5,0.1-1,0.3-1.5,0.5c0,0,0,0,0,0c0,0,0,0,0,0v0
				c-0.1,0-0.3,0.1-0.4,0.1c-0.1,0-0.1,0.1-0.2,0.1c0,0-0.1,0-0.1,0.1c-0.2,0.1-0.3,0.2-0.5,0.2c0,0,0,0-0.1,0
				c-0.2,0.1-0.4,0.2-0.6,0.3c0,0,0,0,0,0c-0.1,0-0.2,0.1-0.2,0.1c-0.1,0.1-0.3,0.1-0.4,0.2c-0.2,0.1-0.4,0.3-0.7,0.4
				c-2.6,1.8-4.4,4.3-5.3,7c-1.2,3.5-0.8,7.4,1.3,10.6c3.8,5.6,11.7,6.8,17.7,2.7c3.6-2.5,5.7-6.3,6-10.1
				C56.6,17.3,56.4,17.3,56.1,17.5z M47.2,22.8c0,0,0.1,0,0.1,0C47.3,22.8,47.3,22.8,47.2,22.8C47.2,22.8,47.2,22.8,47.2,22.8z"/>
			<linearGradient id="XMLID_296_" gradientUnits="userSpaceOnUse" x1="45.6609" y1="7.4172" x2="38.053" y2="29.8573">
				<stop  offset="2.018120e-002" style="stop-color:#D7D9DA"/>
				<stop  offset="0.1638" style="stop-color:#E7E8E9"/>
				<stop  offset="0.3489" style="stop-color:#F7F7F7"/>
				<stop  offset="0.4817" style="stop-color:#FFFFFF"/>
				<stop  offset="0.5927" style="stop-color:#F3F2F1"/>
				<stop  offset="0.7277" style="stop-color:#DEDBDA"/>
				<stop  offset="0.8746" style="stop-color:#C1BCBB"/>
				<stop  offset="1" style="stop-color:#A49D9B"/>
			</linearGradient>
			<path id="XMLID_33_" class="st76" d="M47,9.6c0,0,0.8-0.2,1.7-0.1c2.9,0,4.3,1.5,4.3,1.4c-0.2-0.6-0.9-1.6-1.2-2
				c-1.3-1.6-4-3.6-9-2.9c0,0-1.2,0.1-2.8,0.7c0,0-0.1,0-0.2,0.1c0,0-0.1,0-0.2,0.1c0,0,0,0,0,0c-0.5,0.2-1,0.4-1.5,0.7c0,0,0,0,0,0
				l0,0c0,0,0,0,0,0c-0.1,0.1-0.2,0.1-0.3,0.2c0,0-0.1,0-0.1,0C37.6,7.9,37.5,8,37.3,8c0,0-0.1,0.1-0.1,0.1c-0.1,0-0.1,0.1-0.2,0.1
				c-0.1,0-0.1,0.1-0.2,0.1c-0.1,0-0.1,0.1-0.2,0.2c-0.2,0.1-0.3,0.2-0.5,0.4c-0.2,0.1-0.3,0.2-0.5,0.4c-0.1,0.1-0.2,0.1-0.2,0.2
				c-1.8,1.6-3.2,3.7-3.9,5.9c-1.2,3.5-0.8,7.4,1.3,10.6c3.2,4.7,9.2,6.3,14.5,4.4c0.8-0.3,1.5-0.6,2.3-1c0,0,0,0,0,0c0,0,0,0,0,0
				c0,0,0,0,0,0c0.1,0,0.1-0.1,0.2-0.1c-0.3,0-0.6,0.1-0.9,0.1c-0.6,0-1.6-0.1-2.8-0.3c-1.8-0.5-3.5-1.5-4.7-2.8
				c-1.5-1.6-2.5-3.8-2.6-6.2c0-0.1,0-0.2,0-0.4C38.8,14.7,42.4,10.4,47,9.6z"/>
			<g id="XMLID_31_">
				<linearGradient id="XMLID_297_" gradientUnits="userSpaceOnUse" x1="43.7428" y1="9.7767" x2="50.5645" y2="29.8991">
					<stop  offset="0" style="stop-color:#6D6E71"/>
					<stop  offset="1" style="stop-color:#A7A9AC"/>
				</linearGradient>
				<path id="XMLID_32_" class="st77" d="M48.4,29.4c-5.4,0-9.7-4.5-9.7-10c0-5.5,4.4-10,9.7-10c1.5,0,2.9,0.3,4.2,1
					c0.1,0,0.1,0.1,0.2,0.1l0.3,0.5c-0.1-0.1-0.6-0.4-0.7-0.4c-1.3-0.6-2.6-0.9-4-0.9c-5.2,0-9.5,4.4-9.5,9.8c0,5.4,4.2,9.8,9.5,9.8
					c0.3,0,0.5,0,0.8,0c0.1,0,0.8-0.1,0.9-0.1l-0.6,0.4C49.1,29.4,48.8,29.4,48.4,29.4z"/>
			</g>
		</g>
	</g>
</g>
</svg>
